<?xml version="1.0" encoding="UTF-8"?>
<svg version="1.1" xmlns="http://www.w3.org/2000/svg" width="192" height="192">
<path d="M0 0 C0.83660156 0.00386719 1.67320313 0.00773438 2.53515625 0.01171875 C4.9375 0.3125 4.9375 0.3125 6.91796875 1.3671875 C9.60466951 2.62479211 11.28226347 2.21068751 14.1875 1.75 C19.77295854 1.12359344 22.93025271 1.76495313 27.9375 4.3125 C28.576875 4.9725 29.21625 5.6325 29.875 6.3125 C32.13243628 8.50152912 33.40994833 8.88681884 36.375 9.75 C40.78686583 11.14093307 43.21669287 12.39133679 45.9375 16.3125 C46.8865909 19.4125873 47.62292043 22.48965316 48.26171875 25.66796875 C48.73253605 28.44755224 48.73253605 28.44755224 50.9375 30.3125 C51.10107422 32.75512695 51.10107422 32.75512695 50.9921875 35.80078125 C50.95544922 37.44916992 50.95544922 37.44916992 50.91796875 39.13085938 C50.84800211 41.44882834 50.76995708 43.7665684 50.68359375 46.08398438 C50.42995714 52.60891917 50.42995714 52.60891917 52.8828125 58.48046875 C53.56085938 59.08503906 54.23890625 59.68960938 54.9375 60.3125 C57.10667905 64.6508581 56.53349152 70.78305568 55.44140625 75.41796875 C53.80930474 79.59504211 51.39341241 82.51485662 47.9375 85.3125 C45.125 86.125 45.125 86.125 42.9375 86.3125 C42.669375 87.529375 42.40125 88.74625 42.125 90 C41.3386289 93.568915 39.90357806 96.2367998 37.9375 99.3125 C39.09765625 99.73208984 39.09765625 99.73208984 40.28125 100.16015625 C51.50924331 104.48182199 58.95695866 110.13953487 63.9375 121.3125 C68.41619048 135.10629432 72.7928197 153.57926873 66.83984375 167.625 C63.74662301 173.40972449 60.01717663 176.14972979 53.9375 178.3125 C38.23467674 182.34061553 21.66576166 180.80416952 6.375 175.9375 C-0.38379076 174.03637168 -4.40133489 174.69060749 -10.87890625 177.1484375 C-24.45589024 182.11278257 -41.78077695 182.08390543 -55.140625 176.43359375 C-60.15938332 173.40459567 -62.87023908 168.72618258 -64.3125 163.1875 C-67.26049475 147.39467099 -64.82140152 128.15174244 -56.25 114.4375 C-50.26554319 106.21072811 -43.53039961 102.8260391 -34.0625 99.3125 C-34.4234375 98.62542969 -34.784375 97.93835938 -35.15625 97.23046875 C-35.6203125 96.32941406 -36.084375 95.42835937 -36.5625 94.5 C-37.0265625 93.60667969 -37.490625 92.71335937 -37.96875 91.79296875 C-39.0625 89.3125 -39.0625 89.3125 -39.0625 86.3125 C-39.784375 86.23 -40.50625 86.1475 -41.25 86.0625 C-44.81895432 85.11077885 -46.4778489 83.96516823 -49.0625 81.3125 C-52.36165007 74.94172744 -53.06365857 68.42857808 -52.0625 61.3125 C-49.73350372 56.64800186 -49.73350372 56.64800186 -47.0625 55.3125 C-47.03557516 53.02089681 -47.01613876 50.72920454 -47 48.4375 C-46.98839844 47.16132812 -46.97679688 45.88515625 -46.96484375 44.5703125 C-46.83073431 41.42585348 -46.83073431 41.42585348 -48.0625 39.3125 C-48.49075938 36.2535044 -48.53533284 33.36772758 -48.0625 30.3125 C-45.75 27.3125 -45.75 27.3125 -44.359375 25.91796875 C-42.74502708 23.91948382 -42.21275316 22.0839984 -41.5 19.625 C-40.66423261 16.85768132 -40.24950917 15.51240635 -38.25 13.375 C-36.0625 12.3125 -36.0625 12.3125 -33.0625 11.4375 C-29.43260209 10.07628829 -28.35227667 8.36553556 -26.0625 5.3125 C-21.90252262 2.54848818 -17.83493126 3.28636892 -13.03515625 3.53515625 C-8.06883876 3.16317189 -5.21802006 -0.1048443 0 0 Z " fill="#1A1613" transform="translate(94.0625,6.6875)"/>
<path d="M0 0 C4.75 1.875 4.75 1.875 7 3 C9.04911761 2.93814311 9.04911761 2.93814311 11.3125 2.625 C12.11558594 2.52832031 12.91867188 2.43164062 13.74609375 2.33203125 C16.11812271 2.01650621 16.11812271 2.01650621 18.875 1.3125 C21 1 21 1 24 3 C26.08155752 3.27910695 26.08155752 3.27910695 28.3125 3.1875 C29.10527344 3.17332031 29.89804688 3.15914062 30.71484375 3.14453125 C33.19568251 3.03337932 33.19568251 3.03337932 36.375 2.375 C39 2 39 2 42 4 C45.01623613 4.13749225 47.97613847 3.99594432 50.9921875 3.875 C54.10965027 4.00455689 56.19788565 4.67649211 59 6 C60.35078629 16.33592721 61.25351341 26.63574139 61.4375 37.0625 C61.47166016 38.00037354 61.50582031 38.93824707 61.54101562 39.90454102 C61.5929776 48.05030302 59.02699935 54.36760077 53.8125 60.625 C52 62 52 62 50 62 C49.95101562 60.74703125 49.90203125 59.4940625 49.8515625 58.203125 C49.77651417 56.55206179 49.70096723 54.90102119 49.625 53.25 C49.5940625 52.425 49.563125 51.6 49.53125 50.75 C49.47324219 49.55117187 49.47324219 49.55117187 49.4140625 48.328125 C49.3826416 47.5949707 49.3512207 46.86181641 49.31884766 46.10644531 C48.95646164 43.7123668 48.26120425 42.06098547 47 40 C42.83784939 37.80853367 37.69938147 36.30891449 33 37 C32.01 37.66 31.02 38.32 30 39 C27.80859375 39.265625 27.80859375 39.265625 25.4375 39.25 C24.25994141 39.25773437 24.25994141 39.25773437 23.05859375 39.265625 C21 39 21 39 19 37 C14.05015286 36.76429299 9.41269149 36.95729914 5.375 39.9375 C3.42299022 42.86551467 2.85504073 44.654888 2.68359375 48.1328125 C2.64169922 48.93847656 2.59980469 49.74414062 2.55664062 50.57421875 C2.49766602 51.83685547 2.49766602 51.83685547 2.4375 53.125 C2.39431641 53.97449219 2.35113281 54.82398438 2.30664062 55.69921875 C2.20045764 57.79928223 2.09971503 59.89961948 2 62 C-2.83714487 59.82843071 -5.84739114 56.42604772 -8.13183594 51.61767578 C-9.0359294 48.89166619 -9.2581015 46.7923797 -9.265625 43.9296875 C-9.27005615 42.95950684 -9.2744873 41.98932617 -9.27905273 40.98974609 C-9.26946533 39.96187988 -9.25987793 38.93401367 -9.25 37.875 C-9.23658569 36.28486084 -9.23658569 36.28486084 -9.22290039 34.66259766 C-9.12492754 27.89181044 -8.94712186 21.12816375 -8.4375 14.375 C-8.40108398 13.61300293 -8.36466797 12.85100586 -8.32714844 12.06591797 C-7.89852858 7.55728398 -6.87866207 5.47054107 -3.41015625 2.4765625 C-2.28946336 1.6294134 -1.15763057 0.79593066 0 0 Z " fill="#DB9566" transform="translate(70,45)"/>
<path d="M0 0 C0.04898438 0.98742187 0.09796875 1.97484375 0.1484375 2.9921875 C0.22320312 4.27351563 0.29796875 5.55484375 0.375 6.875 C0.44460937 8.15117188 0.51421875 9.42734375 0.5859375 10.7421875 C0.67241106 14.08061699 0.67241106 14.08061699 3 16 C5.03095121 15.79607435 5.03095121 15.79607435 7.25 15.125 C14.47388193 13.37932424 18.84355667 14.07687276 25.6328125 17.02734375 C28.22181728 18.15771984 28.22181728 18.15771984 32 19 C32.495 24.445 32.495 24.445 33 30 C34.32 30 35.64 30 37 30 C37.33 26.37 37.66 22.74 38 19 C39.15628906 18.58427734 39.15628906 18.58427734 40.3359375 18.16015625 C41.33882813 17.79792969 42.34171875 17.43570313 43.375 17.0625 C44.37273437 16.70285156 45.37046875 16.34320313 46.3984375 15.97265625 C48.93504165 15.07650708 48.93504165 15.07650708 51 14 C52.587018 14.06279568 54.17163011 14.19803125 55.75 14.375 C56.64203125 14.47167969 57.5340625 14.56835938 58.453125 14.66796875 C60.4800468 14.93221469 62.49425494 15.29351436 64.5 15.6875 C65.325 15.790625 66.15 15.89375 67 16 C69.35641524 14.08593338 69.35641524 14.08593338 69.1953125 10.7421875 C69.17210937 9.46601562 69.14890625 8.18984375 69.125 6.875 C69.10695313 5.59367187 69.08890625 4.31234375 69.0703125 2.9921875 C69.04710937 2.00476563 69.02390625 1.01734375 69 0 C76.53662332 0.51976713 80.91074721 2.56914262 86.125 8.1875 C94.12438892 18.00873927 95.35972679 29.82102108 95.375 42.0625 C95.39949219 43.09955078 95.42398438 44.13660156 95.44921875 45.20507812 C95.47332741 51.54163776 94.93634105 56.82687798 91 62 C87.70728958 64.1503415 85.92213215 65 82 65 C81.92652344 63.87851563 81.92652344 63.87851563 81.8515625 62.734375 C81.73941406 61.25710937 81.73941406 61.25710937 81.625 59.75 C81.52058594 58.28820312 81.52058594 58.28820312 81.4140625 56.796875 C81.01176871 54.07949432 80.25466284 52.40044997 79 50 C79.25 47.3125 79.25 47.3125 80 45 C82.49092811 43.75453595 83.41080733 44.2232422 86 45 C86 43.35 86 41.7 86 40 C85.31292969 39.79503906 84.62585938 39.59007812 83.91796875 39.37890625 C83.01691406 39.10949219 82.11585938 38.84007812 81.1875 38.5625 C80.29417969 38.29566406 79.40085937 38.02882812 78.48046875 37.75390625 C76.64526945 37.19612127 74.81966274 36.60655425 73 36 C72.505 30.06 72.505 30.06 72 24 C71.01 24 70.02 24 69 24 C68.67 27.3 68.34 30.6 68 34 C67.17910889 33.99476318 66.35821777 33.98952637 65.51245117 33.98413086 C62.41300729 33.96690082 59.31358813 33.95445958 56.21411133 33.94506836 C54.23452108 33.9376756 52.25495299 33.92495726 50.27539062 33.91210938 C42.78448955 33.89314507 35.44303454 34.15450114 28 35 C21.91186503 35.68185707 21.91186503 35.68185707 19 35 C17.09670246 33.47912021 15.61019039 31.78692803 14.00390625 29.95703125 C8.98322946 25.05379719 1.9170671 21.6873798 -5.125 21.4375 C-6.40375 21.623125 -7.6825 21.80875 -9 22 C-9.66 22.99 -10.32 23.98 -11 25 C-12.64142963 26.0409066 -14.30712215 27.04504326 -16 28 C-17.31651338 29.09701184 -17.31651338 29.09701184 -17.1875 31.8125 C-17.00417846 34.92896612 -16.46152039 36.33691344 -15 39 C-15.47050781 39.37511719 -15.94101562 39.75023437 -16.42578125 40.13671875 C-20.09324956 43.15118028 -22.7468088 45.74397217 -25 50 C-25.33 50 -25.66 50 -26 50 C-26.82020083 35.82875226 -25.45242832 19.3256886 -16 8 C-10.98593141 2.84321598 -7.42471087 -0.20066786 0 0 Z " fill="#1D3150" transform="translate(61,114)"/>
<path d="M0 0 C2.09375 0.3125 2.09375 0.3125 4.09375 1.9375 C5.96901668 3.55876087 5.96901668 3.55876087 8.08203125 3.03125 C9.65049914 2.63056577 11.21819469 2.22684768 12.78515625 1.8203125 C16.25271455 1.05756702 18.70799643 1.27072967 22.09375 2.3125 C23.2790216 3.81811528 24.46148866 5.32785315 25.5703125 6.890625 C28.19463023 9.33998821 31.42520227 9.40374276 34.88671875 9.79296875 C37.09375 10.3125 37.09375 10.3125 39.09375 13.3125 C39.2175 14.59125 39.34125 15.87 39.46875 17.1875 C39.86750156 21.30291702 41.4396184 23.14466551 44.09375 26.3125 C44.63650639 30.11179471 44.27754446 31.0368083 42.09375 34.3125 C41.99491456 37.68579644 42.1623464 41.00837742 42.31640625 44.37890625 C42.24292969 45.34699219 42.16945313 46.31507812 42.09375 47.3125 C41.10375 47.9725 40.11375 48.6325 39.09375 49.3125 C38.97257812 48.25289062 38.85140625 47.19328125 38.7265625 46.1015625 C38.55774248 44.71348676 38.38844692 43.32546881 38.21875 41.9375 C38.14011719 41.23882812 38.06148438 40.54015625 37.98046875 39.8203125 C37.54154555 35.62177841 37.54154555 35.62177841 35.09375 32.3125 C33.11628397 31.58169734 31.11302511 30.91828253 29.09375 30.3125 C28.35125 30.085625 27.60875 29.85875 26.84375 29.625 C24.99187681 29.11448604 24.99187681 29.11448604 23.09375 30.3125 C20.21875 30.625 20.21875 30.625 17.09375 30.3125 C14.71875 28.3125 14.71875 28.3125 13.09375 26.3125 C10.60013429 27.51631448 8.41231917 28.76678722 6.09375 30.3125 C3.21875 30.75 3.21875 30.75 0.09375 30.3125 C-2.78125 27.8125 -2.78125 27.8125 -4.90625 25.3125 C-7.39986571 26.51631448 -9.58768083 27.76678722 -11.90625 29.3125 C-15.28125 29.75 -15.28125 29.75 -18.90625 29.3125 C-20.61211575 27.68597684 -22.2840046 26.02243434 -23.90625 24.3125 C-26.00434488 23.91788951 -26.00434488 23.91788951 -27.90625 25.3125 C-29.16255181 26.75724708 -30.41994175 28.20590985 -31.5625 29.7421875 C-32.90625 31.3125 -32.90625 31.3125 -35.0234375 32.6328125 C-37.18324395 34.21722191 -37.18324395 34.21722191 -37.4453125 37.125 C-37.47367188 38.176875 -37.50203125 39.22875 -37.53125 40.3125 C-37.71319981 46.02292471 -37.71319981 46.02292471 -39.90625 49.3125 C-42.76440651 45.02526524 -41.96254334 41.37464012 -41.78125 36.34375 C-41.65053204 33.13280107 -41.65053204 33.13280107 -43.90625 30.3125 C-43.65365379 25.59737066 -43.16334175 23.54497897 -39.90625 20.3125 C-38.95500256 18.31446949 -38.95500256 18.31446949 -38.28125 16.1875 C-36.98958333 12.39583333 -36.98958333 12.39583333 -35.90625 11.3125 C-34.6275 11.250625 -33.34875 11.18875 -32.03125 11.125 C-29.85731327 10.96007617 -29.85731327 10.96007617 -27.90625 10.3125 C-26.01426201 7.44547256 -26.01426201 7.44547256 -24.90625 4.3125 C-20.80718436 1.57978957 -18.30346978 2.59292743 -13.59765625 3.31640625 C-8.62036294 3.30918231 -5.63493733 -0.14636201 0 0 Z " fill="#1F1F25" transform="translate(95.90625,13.6875)"/>
<path d="M0 0 C0.495 1.485 0.495 1.485 1 3 C-1.24350634 6.40680592 -3.17653484 8.57362958 -7 10 C-9.16667093 10.02038534 -11.33390997 9.99165225 -13.5 9.9375 C-23.27893247 10.1089984 -31.83502098 14.09671019 -40.7109375 17.87475586 C-52.20760906 22.73404818 -62.79229291 25.54005457 -75.3125 25.1875 C-76.25544922 25.17396484 -77.19839844 25.16042969 -78.16992188 25.14648438 C-80.44727388 25.11180389 -82.72328593 25.06296401 -85 25 C-87.00816108 20.98367785 -86.61881278 16.35460843 -86 12 C-83.82512845 7.31989666 -81.29876398 3.86584265 -77 1 C-74.09459188 0.54933958 -71.25088515 0.20147282 -68.328125 -0.0703125 C-67.46166351 -0.15658401 -66.59520203 -0.24285553 -65.70248413 -0.33174133 C-62.88592711 -0.60732566 -60.06829918 -0.86787767 -57.25 -1.125 C-56.29615417 -1.21371368 -55.34230835 -1.30242737 -54.35955811 -1.39382935 C-10.88722579 -5.39917524 -10.88722579 -5.39917524 0 0 Z " fill="#DE9A6D" transform="translate(136,155)"/>
<path d="M0 0 C2.60077352 -0.30441916 4.95983401 -0.42017445 7.5625 -0.3984375 C8.30959229 -0.40130768 9.05668457 -0.40417786 9.82641602 -0.40713501 C11.40674599 -0.40917747 12.98710113 -0.40363481 14.56738281 -0.39111328 C16.99080764 -0.37506089 19.41256474 -0.39095439 21.8359375 -0.41015625 C23.36979536 -0.40817385 24.90365218 -0.40433023 26.4375 -0.3984375 C27.16461182 -0.40451019 27.89172363 -0.41058289 28.64086914 -0.4168396 C30.68359375 -0.38818359 30.68359375 -0.38818359 34 0 C36.68902746 4.03354119 36.66173767 7.26470833 36 12 C33.6580353 15.86933299 29.95899317 17.19828635 25.76171875 18.4609375 C17.26561377 20.11930028 8.76337014 19.95492441 1 16 C-1.26534867 14.26428146 -1.92625788 13.48209899 -2.36328125 10.625 C-2.34652344 9.75875 -2.32976562 8.8925 -2.3125 8 C-2.30863281 7.13375 -2.30476563 6.2675 -2.30078125 5.375 C-2 3 -2 3 0 0 Z " fill="#D69164" transform="translate(79,88)"/>
<path d="M0 0 C1.00496852 3.01490557 1.10335303 5.04181692 1.0625 8.1875 C1.05347656 9.08855469 1.04445312 9.98960937 1.03515625 10.91796875 C1.02355469 11.60503906 1.01195312 12.29210937 1 13 C-23.98265839 13.61916858 -23.98265839 13.61916858 -34 10 C-34 9.34 -34 8.68 -34 8 C-27.0479026 4.55598861 -21.00306711 3.61737221 -13.2890625 3.28125 C-8.6530578 2.88482204 -4.43375968 0 0 0 Z " fill="#D9966B" transform="translate(137,167)"/>
<path d="M0 0 C3.71599191 -0.20086443 4.77208445 -0.1519437 8 2 C10.87057251 2.31788492 10.87057251 2.31788492 14 2.25 C15.051875 2.25515625 16.10375 2.2603125 17.1875 2.265625 C20.20650379 2.20467017 20.20650379 2.20467017 23 0 C25.6875 -0.125 25.6875 -0.125 28 0 C28 2.25 28 2.25 27 5 C22.60187002 8.51177215 17.77739259 9.59086153 12.24609375 9.33203125 C7.64738134 8.65222159 3.34323124 7.34323124 0 4 C0 2.68 0 1.36 0 0 Z " fill="#1F160F" transform="translate(82,92)"/>
<path d="M0 0 C0 4.29 0 8.58 0 13 C-2.0728125 12.4740625 -2.0728125 12.4740625 -4.1875 11.9375 C-9.96096363 10.66354324 -13.61542125 11.69232339 -19 14 C-17.7683292 10.30498759 -16.29220899 9.37616323 -13.25 7 C-12.38890625 6.319375 -11.5278125 5.63875 -10.640625 4.9375 C-3.91129032 0 -3.91129032 0 0 0 Z " fill="#E6CCB6" transform="translate(125,112)"/>
<path d="M0 0 C2.57860235 3.86790352 2.01114505 6.76613915 1.625 11.1875 C1.56828125 11.93708984 1.5115625 12.68667969 1.453125 13.45898438 C1.31189331 15.30676559 1.15723833 17.153512 1 19 C-2.2027703 18.41767813 -2.78312892 18.30981583 -4.75 15.5 C-6.24442822 11.31560098 -6.85533501 7.40245961 -6 3 C-3.96070981 0.29883493 -3.49714771 0 0 0 Z " fill="#D79264" transform="translate(54,67)"/>
<path d="M0 0 C7.65082996 3.06033198 13.06284887 6.36570316 18 13 C17.154375 12.649375 16.30875 12.29875 15.4375 11.9375 C11.48641241 10.85993066 8.98773087 11.20245383 5 12 C3.35 12.33 1.7 12.66 0 13 C0 8.71 0 4.42 0 0 Z " fill="#E9CFB8" transform="translate(67,112)"/>
<path d="M0 0 C3.875 1.875 3.875 1.875 5 3 C5.61428132 8.61122362 5.32342182 13.25225454 2 18 C-0.109375 18.65625 -0.109375 18.65625 -2 19 C-2.24867947 16.39635591 -2.47457902 13.79410106 -2.6875 11.1875 C-2.79674805 10.08051758 -2.79674805 10.08051758 -2.90820312 8.95117188 C-3.33135078 3.45025238 -3.33135078 3.45025238 -1.51953125 0.98828125 C-1.01808594 0.66214844 -0.51664063 0.33601563 0 0 Z " fill="#D69164" transform="translate(139,67)"/>
<path d="M0 0 C1.15113281 -0.02578125 2.30226563 -0.0515625 3.48828125 -0.078125 C6.93864327 0.27575828 8.36003908 0.69841321 10.6875 3.25 C10.6875 4.57 10.6875 5.89 10.6875 7.25 C4.57264973 7.34706112 -1.24553301 7.02040851 -7.3125 6.25 C-7.355221 4.58388095 -7.35313832 2.91617115 -7.3125 1.25 C-5.45145086 -0.61104914 -2.49213923 0.03326548 0 0 Z " fill="#1B130E" transform="translate(112.3125,54.75)"/>
<path d="M0 0 C1.1653125 0.00515625 2.330625 0.0103125 3.53125 0.015625 C4.6965625 0.01046875 5.861875 0.0053125 7.0625 0 C10.03125 0.265625 10.03125 0.265625 12.03125 2.265625 C12.03125 3.585625 12.03125 4.905625 12.03125 6.265625 C5.98295514 7.16166868 0.1417924 7.37831943 -5.96875 7.265625 C-4.89063817 0.43758342 -4.89063817 0.43758342 0 0 Z " fill="#1B140E" transform="translate(74.96875,54.734375)"/>
<path d="M0 0 C5.94 0 11.88 0 18 0 C12.375 6.75 12.375 6.75 8 8 C6.66372225 6.85760183 5.33104612 5.71098945 4 4.5625 C3.2575 3.92441406 2.515 3.28632812 1.75 2.62890625 C1.1725 2.09136719 0.595 1.55382812 0 1 C0 0.67 0 0.34 0 0 Z " fill="#CF8C61" transform="translate(87,118)"/>
<path d="M0 0 C5.73236002 0.429927 9.4021566 2.8206402 14 6 C15.2375 6.8353125 15.2375 6.8353125 16.5 7.6875 C16.995 8.120625 17.49 8.55375 18 9 C18 9.66 18 10.32 18 11 C14.62939751 11.41272684 12.04364696 11.68205144 9.1171875 9.76953125 C7.35873558 8.22803119 5.68005461 6.62599345 4 5 C3.195625 4.4225 2.39125 3.845 1.5625 3.25 C1.046875 2.8375 0.53125 2.425 0 2 C0 1.34 0 0.68 0 0 Z " fill="#D49168" transform="translate(55,139)"/>
<path d="M0 0 C0.66 0.33 1.32 0.66 2 1 C0.99088542 2.7578125 -0.01822917 4.515625 -1.02734375 6.2734375 C-2.76537686 9.35862077 -3.24511913 11.58847033 -3.5625 15.125 C-3.68818359 16.49011719 -3.68818359 16.49011719 -3.81640625 17.8828125 C-3.87699219 18.58148438 -3.93757813 19.28015625 -4 20 C-5.32 19.34 -6.64 18.68 -8 18 C-8.6006222 11.27303135 -7.35565212 7.22678255 -3 2 C-2.01 1.34 -1.02 0.68 0 0 Z " fill="#1B2E4B" transform="translate(48,157)"/>
<path d="M0 0 C2.625 0.375 2.625 0.375 5 1 C5 4.3 5 7.6 5 11 C3.02 11 1.04 11 -1 11 C-2.50662097 7.98675805 -2.17770373 5.31713623 -2 2 C-1.34 1.34 -0.68 0.68 0 0 Z " fill="#1F160F" transform="translate(78,67)"/>
<path d="M0 0 C4.70588235 0.70588235 4.70588235 0.70588235 6 2 C6.1875 5.4375 6.1875 5.4375 6 9 C5.34 9.66 4.68 10.32 4 11 C0.46428571 10.46428571 0.46428571 10.46428571 -1 9 C-1.1328125 7.1875 -1.1328125 7.1875 -1.125 5 C-1.12757812 4.278125 -1.13015625 3.55625 -1.1328125 2.8125 C-1 1 -1 1 0 0 Z " fill="#19120D" transform="translate(110,67)"/>
<path d="M0 0 C4.0013028 0.61558505 6.77824353 2.63737859 10 5 C10.33 5.66 10.66 6.32 11 7 C4.70786517 7.36300778 4.70786517 7.36300778 1.5625 5.75 C0 4 0 4 0 0 Z " fill="#D39068" transform="translate(48,144)"/>
<path d="M0 0 C0.66 0.33 1.32 0.66 2 1 C0.515 2.485 0.515 2.485 -1 4 C-0.67 4.66 -0.34 5.32 0 6 C-2.97 7.32 -5.94 8.64 -9 10 C-7.84906278 6.54718834 -6.6794007 5.61917837 -3.9375 3.3125 C-2.83728516 2.37857422 -2.83728516 2.37857422 -1.71484375 1.42578125 C-1.14894531 0.95527344 -0.58304688 0.48476562 0 0 Z " fill="#D0B6A1" transform="translate(115,116)"/>
<path d="M0 0 C0.66 0 1.32 0 2 0 C1.34 1.32 0.68 2.64 0 4 C-0.66 4 -1.32 4 -2 4 C-2.0825 5.27875 -2.165 6.5575 -2.25 7.875 C-2.51171875 10.0859375 -2.51171875 10.0859375 -3 12 C-5.0625 13.5 -5.0625 13.5 -7 14 C-6.34 13.01 -5.68 12.02 -5 11 C-4.18209435 8.70577466 -3.48561769 6.38989767 -2.78125 4.05859375 C-2 2 -2 2 0 0 Z " fill="#54504C" transform="translate(56,20)"/>
<path d="M0 0 C1.36511719 0.43119141 1.36511719 0.43119141 2.7578125 0.87109375 C3.45648438 1.09925781 4.15515625 1.32742187 4.875 1.5625 C1.78021121 2.59409626 0.34868607 2.53732862 -2.8125 2.125 C-4.02486328 1.97224609 -4.02486328 1.97224609 -5.26171875 1.81640625 C-5.87660156 1.73261719 -6.49148437 1.64882812 -7.125 1.5625 C-7.125 0.9025 -7.125 0.2425 -7.125 -0.4375 C-4.30685434 -1.84657283 -2.95222796 -0.94622691 0 0 Z " fill="#5E5A57" transform="translate(135.125,107.4375)"/>
</svg>
